<?xml version="1.0" encoding="UTF-8" standalone="no"?>
<!-- Created with Inkscape (http://www.inkscape.org/) -->

<svg
   xmlns:dc="http://purl.org/dc/elements/1.1/"
   xmlns:cc="http://creativecommons.org/ns#"
   xmlns:rdf="http://www.w3.org/1999/02/22-rdf-syntax-ns#"
   xmlns:svg="http://www.w3.org/2000/svg"
   xmlns="http://www.w3.org/2000/svg"
   xmlns:xlink="http://www.w3.org/1999/xlink"
   xmlns:sodipodi="http://sodipodi.sourceforge.net/DTD/sodipodi-0.dtd"
   xmlns:inkscape="http://www.inkscape.org/namespaces/inkscape"
   width="64"
   height="64"
   id="svg2"
   version="1.1"
   inkscape:version="0.48.3.1 r9886"
   sodipodi:docname="clock_1s.svg">
  <defs
     id="defs4">
    <linearGradient
       inkscape:collect="always"
       id="linearGradient3970">
      <stop
         style="stop-color:#f5f5f5;stop-opacity:1;"
         offset="0"
         id="stop3972" />
      <stop
         style="stop-color:#d7d7d7;stop-opacity:1"
         offset="1"
         id="stop3974" />
    </linearGradient>
    <inkscape:perspective
       sodipodi:type="inkscape:persp3d"
       inkscape:vp_x="0 : 526.18109 : 1"
       inkscape:vp_y="0 : 1000 : 0"
       inkscape:vp_z="744.09448 : 526.18109 : 1"
       inkscape:persp3d-origin="372.04724 : 350.78739 : 1"
       id="perspective2468" />
    <inkscape:perspective
       id="perspective10"
       inkscape:persp3d-origin="372.04724 : 350.78739 : 1"
       inkscape:vp_z="744.09448 : 526.18109 : 1"
       inkscape:vp_y="0 : 1000 : 0"
       inkscape:vp_x="0 : 526.18109 : 1"
       sodipodi:type="inkscape:persp3d" />
    <linearGradient
       y2="469.61218"
       x2="195.8125"
       y1="469.43201"
       x1="178.52122"
       gradientUnits="userSpaceOnUse"
       id="linearGradient3622"
       xlink:href="#linearGradient3624"
       inkscape:collect="always" />
    <linearGradient
       y2="469.46918"
       x2="195.29178"
       y1="469.64233"
       x1="178.20621"
       gradientUnits="userSpaceOnUse"
       id="linearGradient3602"
       xlink:href="#linearGradient3604"
       inkscape:collect="always" />
    <linearGradient
       y2="469.61218"
       x2="195.8125"
       y1="469.36932"
       x1="184.05486"
       gradientUnits="userSpaceOnUse"
       id="linearGradient3588"
       xlink:href="#linearGradient3563"
       inkscape:collect="always" />
    <inkscape:perspective
       sodipodi:type="inkscape:persp3d"
       inkscape:vp_x="0 : 526.18109 : 1"
       inkscape:vp_y="0 : 1000 : 0"
       inkscape:vp_z="744.09448 : 526.18109 : 1"
       inkscape:persp3d-origin="372.04724 : 350.78739 : 1"
       id="perspective2468-2" />
    <inkscape:perspective
       id="perspective10-8"
       inkscape:persp3d-origin="372.04724 : 350.78739 : 1"
       inkscape:vp_z="744.09448 : 526.18109 : 1"
       inkscape:vp_y="0 : 1000 : 0"
       inkscape:vp_x="0 : 526.18109 : 1"
       sodipodi:type="inkscape:persp3d" />
    <linearGradient
       inkscape:collect="always"
       id="linearGradient3563">
      <stop
         style="stop-color:#888a85;stop-opacity:1"
         offset="0"
         id="stop3565" />
      <stop
         style="stop-color:#d3d7cf;stop-opacity:1"
         offset="1"
         id="stop3567" />
    </linearGradient>
    <linearGradient
       id="linearGradient3604"
       inkscape:collect="always">
      <stop
         id="stop3606"
         offset="0"
         style="stop-color:#888a85;stop-opacity:1" />
      <stop
         id="stop3608"
         offset="1"
         style="stop-color:#eeeeec;stop-opacity:1" />
    </linearGradient>
    <linearGradient
       id="linearGradient3624"
       inkscape:collect="always">
      <stop
         id="stop3626"
         offset="0"
         style="stop-color:#eeeeec;stop-opacity:1" />
      <stop
         id="stop3628"
         offset="1"
         style="stop-color:#888a85;stop-opacity:1" />
    </linearGradient>
    <linearGradient
       id="linearGradient3851"
       inkscape:collect="always">
      <stop
         id="stop3853"
         offset="0"
         style="stop-color:#eeeeec;stop-opacity:1" />
      <stop
         id="stop3855"
         offset="1"
         style="stop-color:#888a85;stop-opacity:1" />
    </linearGradient>
    <linearGradient
       id="linearGradient3886"
       inkscape:collect="always">
      <stop
         id="stop3888"
         offset="0"
         style="stop-color:#eeeeec;stop-opacity:1" />
      <stop
         id="stop3890"
         offset="1"
         style="stop-color:#888a85;stop-opacity:1" />
    </linearGradient>
    <radialGradient
       inkscape:collect="always"
       xlink:href="#linearGradient3851"
       id="radialGradient3732"
       gradientUnits="userSpaceOnUse"
       gradientTransform="matrix(1.2053767,0,0,0.7166113,-284.84765,614.02511)"
       cx="182.8755"
       cy="455.88815"
       fx="182.8755"
       fy="455.88815"
       r="8.7778254" />
    <radialGradient
       inkscape:collect="always"
       xlink:href="#linearGradient3886"
       id="radialGradient3735"
       gradientUnits="userSpaceOnUse"
       gradientTransform="matrix(1,0,0,0.7022489,-307.30127,559.99884)"
       cx="231.77881"
       cy="533.42224"
       fx="231.77881"
       fy="533.42224"
       r="10.812" />
    <radialGradient
       inkscape:collect="always"
       xlink:href="#linearGradient3886"
       id="radialGradient3738"
       gradientUnits="userSpaceOnUse"
       gradientTransform="matrix(0.8149971,-0.1545004,0.2144079,1.1310119,-387.3152,362.51606)"
       cx="234.62225"
       cy="532.39911"
       fx="234.62225"
       fy="532.39911"
       r="10.812" />
    <radialGradient
       inkscape:collect="always"
       xlink:href="#linearGradient3970"
       id="radialGradient3976"
       cx="33.479401"
       cy="34.032036"
       fx="33.479401"
       fy="34.032036"
       r="17.625"
       gradientUnits="userSpaceOnUse"
       gradientTransform="matrix(1.2871795,0.00880415,-0.00925912,1.3550397,-9.27889,-12.28452)" />
  </defs>
  <sodipodi:namedview
     id="base"
     pagecolor="#ffffff"
     bordercolor="#666666"
     borderopacity="1.0"
     inkscape:pageopacity="0.0"
     inkscape:pageshadow="2"
     inkscape:zoom="2.8284272"
     inkscape:cx="-71.079655"
     inkscape:cy="-15.960084"
     inkscape:document-units="px"
     inkscape:current-layer="layer1"
     showgrid="true"
     inkscape:showpageshadow="false"
     inkscape:snap-global="false"
     inkscape:window-width="1280"
     inkscape:window-height="953"
     inkscape:window-x="0"
     inkscape:window-y="0"
     inkscape:window-maximized="1"
     inkscape:object-paths="false"
     inkscape:snap-nodes="true"
     inkscape:object-nodes="false"
     inkscape:snap-bbox="false" />
  <metadata
     id="metadata7">
    <rdf:RDF>
      <cc:Work
         rdf:about="">
        <dc:format>image/svg+xml</dc:format>
        <dc:type
           rdf:resource="http://purl.org/dc/dcmitype/StillImage" />
      </cc:Work>
    </rdf:RDF>
  </metadata>
  <g
     inkscape:label="Capa 1"
     inkscape:groupmode="layer"
     id="layer1"
     transform="translate(0,-988.36218)">
    <path
       style="fill:none;stroke:#414141;stroke-width:2;stroke-linejoin:round;stroke-miterlimit:4;stroke-dasharray:none"
       d="m 26.952665,996.68231 0,5.03109 2.6875,0 0,1.375 c -9.505776,1.1102 -16.875,9.1962 -16.875,19 0,10.5625 8.562554,19.125 19.125,19.125 10.562446,0 19.125,-8.5625 19.125,-19.125 0,-2.3912 -0.448472,-4.6713 -1.25,-6.7813 l 2,-1.1562 -2.25,-3.9063 -1.84375,1.0625 c -3.042837,-4.4471 -7.91644,-7.5556 -13.53125,-8.2187 l 0,-1.375 2.6875,0 0,-5.03109 -9.875,0 z"
       id="rect3945-6"
       inkscape:connector-curvature="0" />
    <path
       style="fill:#9b9b9b;fill-opacity:1;stroke:none"
       d="M 27.0625 8.21875 L 27.0625 13.25 L 29.75 13.25 L 29.75 14.625 C 20.244224 15.735193 12.875 23.821165 12.875 33.625 C 12.875 44.187446 21.437554 52.75 32 52.75 C 42.562446 52.75 51.125 44.187446 51.125 33.625 C 51.125 31.233813 50.676528 28.953804 49.875 26.84375 L 51.875 25.6875 L 49.625 21.78125 L 47.78125 22.84375 C 44.738413 18.396591 39.86481 15.288134 34.25 14.625 L 34.25 13.25 L 36.9375 13.25 L 36.9375 8.21875 L 27.0625 8.21875 z "
       transform="translate(0,988.36218)"
       id="rect3945" />
    <path
       sodipodi:type="arc"
       style="fill:url(#radialGradient3976);fill-opacity:1;stroke:none"
       id="path3907"
       sodipodi:cx="33.625"
       sodipodi:cy="33.875"
       sodipodi:rx="17.625"
       sodipodi:ry="17.625"
       d="M 51.25,33.875 C 51.25,43.609019 43.359019,51.5 33.625,51.5 23.890981,51.5 16,43.609019 16,33.875 16,24.140981 23.890981,16.25 33.625,16.25 c 9.734019,0 17.625,7.890981 17.625,17.625 z"
       transform="translate(-1.625,988.11218)" />
    <g
       style="font-size:38.02894211px;font-style:normal;font-variant:normal;font-weight:bold;font-stretch:normal;line-height:125%;letter-spacing:0px;word-spacing:0px;fill:#555555;fill-opacity:1;stroke:none;font-family:ISL_Jupiter;-inkscape-font-specification:ISL_Jupiter Bold"
       id="text3981"
       transform="translate(-55.154327,3.1819804)">
      <path
         d="m 33.331012,1028.3483 -2.662025,0 0,-2.6621 2.662025,0 0,2.6621 m 6.655065,-15.0215 c 0.633798,0.6339 0.950706,1.3944 0.950724,2.2818 l 0,2.662 c -1.8e-5,0.9127 -0.316926,1.6733 -0.950724,2.2817 -0.608479,0.6339 -1.369057,0.9508 -2.281736,0.9508 l -3.802894,0 c -0.152127,0 -0.291566,0.063 -0.418319,0.1901 -0.101421,0.1014 -0.152126,0.2282 -0.152116,0.3803 l 0,2.4719 -2.662025,0 0,-2.4719 c -8e-6,-0.8873 0.316899,-1.6479 0.950723,-2.2817 0.633807,-0.6339 1.394385,-0.9508 2.281737,-0.9508 l 3.802894,0 c 0.177453,0 0.316893,-0.051 0.418318,-0.1521 0.101396,-0.1014 0.152101,-0.2408 0.152116,-0.4183 l 0,-2.662 c -1.5e-5,-0.1775 -0.05072,-0.3042 -0.152116,-0.3803 -0.101425,-0.1268 -0.240865,-0.1901 -0.418318,-0.1902 l -11.408683,0 c -0.177471,10e-5 -0.316911,0.063 -0.418318,0.1902 -0.101413,0.1014 -0.152119,0.2282 -0.152116,0.3803 l 0,1.331 -2.662026,0 0,-1.331 c 0,-0.8874 0.316908,-1.6479 0.950724,-2.2818 0.633814,-0.6338 1.394392,-0.9507 2.281736,-0.9507 l 11.408683,0 c 0.912679,0 1.673257,0.3169 2.281736,0.9507"
         style="fill:#555555"
         id="path3986"
         inkscape:connector-curvature="0" />
    </g>
    <g
       style="font-size:34.10744475999999992px;font-style:normal;font-variant:normal;font-weight:normal;font-stretch:normal;line-height:125%;letter-spacing:0px;word-spacing:0px;fill:#555555;fill-opacity:1;stroke:none;font-family:ISL_Jupiter;-inkscape-font-specification:ISL_Jupiter"
       id="text3016">
      <path
         d="m 27.445775,1013.9954 0,14.3252 -2.387522,0 0,-11.9376 -0.443396,0 -5.184332,4.2634 -1.534835,-1.8418 5.866481,-4.8092 3.683604,0"
         style="fill:#555555;fill-opacity:1"
         id="path3105" />
      <path
         d="m 32.71644,1020.3053 c 0,-0.7731 0.272859,-1.4552 0.818579,-2.0464 0.568456,-0.5685 1.261973,-0.8527 2.080554,-0.8527 l 8.867936,0 0,2.3875 -8.867936,0 c -0.159171,0 -0.284231,0.057 -0.375182,0.1705 -0.09096,0.091 -0.136432,0.2047 -0.13643,0.3411 l 0,0.8527 c -2e-6,0.1592 0.04547,0.2842 0.13643,0.3752 0.136427,0.091 0.261488,0.1364 0.375182,0.1364 l 6.821489,0 c 0.79583,0 1.477978,0.2842 2.046447,0.8527 0.272847,0.2956 0.477492,0.6139 0.613934,0.955 0.159155,0.3183 0.238739,0.6822 0.238752,1.0914 l 0,0.8527 c -1.3e-5,0.7959 -0.284241,1.478 -0.852686,2.0465 -0.568469,0.5684 -1.250617,0.8527 -2.046447,0.8527 l -8.867936,0 0,-2.3876 8.867936,0 c 0.159158,0 0.284219,-0.045 0.375182,-0.1364 0.09094,-0.1364 0.136419,-0.2615 0.13643,-0.3752 l 0,-0.8527 c -1.1e-5,-0.091 -0.04549,-0.2046 -0.13643,-0.341 -0.113702,-0.1137 -0.238762,-0.1706 -0.375182,-0.1706 l -6.821489,0 c -0.818581,0 -1.500729,-0.2842 -2.046447,-0.8527 -0.568457,-0.5457 -0.852686,-1.2278 -0.852686,-2.0464 l 0,-0.8527"
         style="fill:#555555;fill-opacity:1"
         id="path3107" />
    </g>
    <g
       style="font-size:34.10744476px;font-style:normal;font-variant:normal;font-weight:normal;font-stretch:normal;line-height:125%;letter-spacing:0px;word-spacing:0px;fill:#000000;fill-opacity:1;stroke:none;font-family:ISL_Jupiter;-inkscape-font-specification:ISL_Jupiter"
       id="text3016-1">
      <path
         d="m 32.114802,1061.6793 c -0.04549,0.7503 -0.227399,1.387 -0.545719,1.91 l 0,0.034 c -0.113707,0.1592 -0.227398,0.307 -0.341075,0.4434 -0.113706,0.1137 -0.238767,0.2274 -0.375182,0.3411 -0.386565,0.2956 -0.739008,0.4775 -1.05733,0.5457 l 0,0.034 -0.03411,0 -10.709737,2.865 0.06821,0 c -0.04548,0.023 -0.102325,0.046 -0.170537,0.068 -0.04548,0.023 -0.09096,0.045 -0.13643,0.068 -0.04548,0.068 -0.113694,0.1478 -0.204644,0.2388 -0.09096,0.1592 -0.136432,0.3638 -0.13643,0.6139 l 0,1.0232 13.642978,0 0,2.3876 -16.030499,0 0,-3.4108 c 0,-0.7731 0.181906,-1.4211 0.545719,-1.9441 0.136429,-0.2274 0.363812,-0.4775 0.682149,-0.7504 l 0.03411,-0.034 c 0.318335,-0.2501 0.670778,-0.432 1.057331,-0.5457 l 0.03411,0 0,-0.034 10.67563,-2.8309 c 0.09094,-0.046 0.159155,-0.091 0.204644,-0.1365 l 0.03411,-0.034 c 0.113678,-0.1136 0.181893,-0.1932 0.204645,-0.2387 0.113677,-0.1364 0.170523,-0.3411 0.170537,-0.6139 l 0,-0.8527 c -1.4e-5,-0.1592 -0.05686,-0.2729 -0.170537,-0.3411 -0.06823,-0.1137 -0.18192,-0.1705 -0.341075,-0.1705 l -10.232233,0 c -0.159171,0 -0.284232,0.057 -0.375182,0.1705 -0.09096,0.068 -0.136432,0.1819 -0.13643,0.3411 l 0,1.1937 -2.387521,0 0,-1.1937 c 0,-0.7731 0.272859,-1.4553 0.818579,-2.0465 0.568456,-0.5684 1.261973,-0.8526 2.080554,-0.8527 l 10.232233,0 c 0.795827,10e-5 1.477975,0.2843 2.046447,0.8527 0.568441,0.5685 0.85267,1.2506 0.852686,2.0465 l 0,0.8527"
         style=""
         id="path3100" />
      <path
         d="m 33.804186,1064.2373 c 0,-0.7731 0.272859,-1.4552 0.818579,-2.0464 0.568456,-0.5685 1.261973,-0.8527 2.080554,-0.8527 l 8.867935,0 0,2.3875 -8.867935,0 c -0.159171,0 -0.284232,0.057 -0.375182,0.1705 -0.09096,0.091 -0.136432,0.2047 -0.13643,0.3411 l 0,0.8527 c -2e-6,0.1592 0.04547,0.2842 0.13643,0.3752 0.136427,0.091 0.261487,0.1364 0.375182,0.1364 l 6.821489,0 c 0.795829,0 1.477978,0.2842 2.046446,0.8527 0.272848,0.2956 0.477492,0.6139 0.613934,0.955 0.159156,0.3183 0.23874,0.6822 0.238752,1.0914 l 0,0.8527 c -1.2e-5,0.7959 -0.284241,1.478 -0.852686,2.0465 -0.568468,0.5684 -1.250617,0.8527 -2.046446,0.8527 l -8.867936,0 0,-2.3876 8.867936,0 c 0.159158,0 0.284218,-0.045 0.375182,-0.1364 0.09094,-0.1364 0.136419,-0.2615 0.136429,-0.3752 l 0,-0.8527 c -1e-5,-0.091 -0.04549,-0.2046 -0.136429,-0.341 -0.113702,-0.1137 -0.238762,-0.1706 -0.375182,-0.1706 l -6.821489,0 c -0.818581,0 -1.500729,-0.2842 -2.046447,-0.8527 -0.568458,-0.5457 -0.852686,-1.2278 -0.852686,-2.0464 l 0,-0.8527"
         style=""
         id="path3102" />
    </g>
    <g
       style="font-size:34.10744476px;font-style:normal;font-variant:normal;font-weight:normal;font-stretch:normal;line-height:125%;letter-spacing:0px;word-spacing:0px;fill:#000000;fill-opacity:1;stroke:none;font-family:ISL_Jupiter;-inkscape-font-specification:ISL_Jupiter"
       id="text3016-3">
      <path
         d="m -66.048245,1087.5112 c 0.22737,-0.068 0.443384,-0.1251 0.648042,-0.1706 0.227369,-0.045 0.454752,-0.068 0.682149,-0.068 l 2.046446,0 0,8.5269 1.705373,0 0,2.3875 -1.705373,0 0,3.4107 -2.387521,0 0,-3.4107 -13.60887,0 0,-1.6713 c 0,-0.7276 0.147799,-1.3756 0.443397,-1.9441 0.363811,-0.6367 0.829946,-1.1028 1.398405,-1.3984 l 9.720622,-5.1161 -0.06821,0 c 0.250109,-0.1137 0.466123,-0.216 0.648041,-0.307 0.181894,-0.1137 0.352431,-0.1932 0.511612,-0.2387 l -0.03411,0 m 0.784472,2.2511 c -0.113705,0.045 -0.227397,0.1023 -0.341075,0.1705 -0.09097,0.045 -0.216027,0.1137 -0.375182,0.2046 l -0.03411,0.034 -9.686515,5.1162 c -0.204647,0.1137 -0.341077,0.2501 -0.409289,0.4092 -0.02274,0.023 -0.03411,0.046 -0.03411,0.068 -3e-6,0 -0.01137,0.011 -0.03411,0.034 l 11.119027,0 0,-6.1053 c -0.04549,0.023 -0.0796,0.034 -0.102322,0.034 -1.4e-5,10e-5 -0.02275,0.011 -0.06821,0.034 l -0.03411,0"
         style=""
         id="path3095" />
      <path
         d="m -59.216097,1093.5823 c 0,-0.7731 0.272859,-1.4553 0.818579,-2.0465 0.568456,-0.5684 1.261973,-0.8526 2.080554,-0.8526 l 8.867936,0 0,2.3875 -8.867936,0 c -0.159171,0 -0.284231,0.057 -0.375182,0.1705 -0.09096,0.091 -0.136432,0.2047 -0.13643,0.3411 l 0,0.8527 c -2e-6,0.1591 0.04547,0.2842 0.13643,0.3752 0.136427,0.091 0.261488,0.1364 0.375182,0.1364 l 6.821489,0 c 0.79583,0 1.477978,0.2842 2.046447,0.8527 0.272847,0.2956 0.477492,0.6139 0.613934,0.955 0.159155,0.3183 0.238739,0.6821 0.238752,1.0914 l 0,0.8527 c -1.3e-5,0.7958 -0.284241,1.478 -0.852686,2.0464 -0.568469,0.5685 -1.250617,0.8527 -2.046447,0.8527 l -8.867936,0 0,-2.3875 8.867936,0 c 0.159158,0 0.284219,-0.045 0.375182,-0.1364 0.09094,-0.1364 0.136419,-0.2615 0.13643,-0.3752 l 0,-0.8527 c -1.1e-5,-0.091 -0.04549,-0.2046 -0.13643,-0.3411 -0.113702,-0.1136 -0.238762,-0.1705 -0.375182,-0.1705 l -6.821489,0 c -0.818581,0 -1.500729,-0.2842 -2.046447,-0.8527 -0.568457,-0.5457 -0.852686,-1.2278 -0.852686,-2.0464 l 0,-0.8527"
         style=""
         id="path3097" />
    </g>
    <g
       style="font-size:34.10744476px;font-style:normal;font-variant:normal;font-weight:normal;font-stretch:normal;line-height:125%;letter-spacing:0px;word-spacing:0px;fill:#000000;fill-opacity:1;stroke:none;font-family:ISL_Jupiter;-inkscape-font-specification:ISL_Jupiter"
       id="text3016-0">
      <path
         d="m -12.612612,1088.1252 0.03411,0 c 0.568441,0.5685 0.85267,1.2506 0.852686,2.0465 l 0,1.1937 -2.387521,0 0,-1.1937 c -1.4e-5,-0.1592 -0.05686,-0.2729 -0.170537,-0.3411 l 0,-0.034 0,-0.034 c -0.113705,-0.068 -0.227397,-0.1023 -0.341075,-0.1023 l -10.232233,0 c -0.159171,0 -0.284232,0.057 -0.375182,0.1705 -0.09096,0.068 -0.136432,0.1819 -0.13643,0.3411 l 0,3.0696 10.743845,0 c 0.795827,0 1.466606,0.2729 2.012339,0.8186 l 0,0.034 0.03411,0 c 0.500227,0.4548 0.784455,1.046 0.852686,1.7736 l 0,0.2729 0,2.558 c -1.6e-5,0.8186 -0.284245,1.5008 -0.852686,2.0465 -0.568472,0.5684 -1.25062,0.8527 -2.046447,0.8527 l -10.232233,0 c -0.818581,0 -1.500729,-0.2843 -2.046447,-0.8527 -0.568458,-0.5457 -0.852686,-1.2279 -0.852686,-2.0465 l 0,-8.5268 c 0,-0.7959 0.284228,-1.478 0.852686,-2.0465 0.545718,-0.5684 1.227866,-0.8527 2.046447,-0.8527 l 10.232233,0 c 0.795827,0 1.466606,0.2729 2.012339,0.8186 l 0,0.034 m -1.500727,7.9471 c -0.04549,-0.1365 -0.102336,-0.2274 -0.170537,-0.2729 l 0,-0.034 c -0.136444,-0.091 -0.250135,-0.1364 -0.341075,-0.1364 l -10.743845,0 0,3.0696 c -2e-6,0.1592 0.04547,0.2843 0.13643,0.3752 0.09095,0.091 0.216011,0.1364 0.375182,0.1364 l 10.232233,0 c 0.136417,0 0.250108,-0.045 0.341075,-0.1364 0.113677,-0.1137 0.170523,-0.2387 0.170537,-0.3752 l 0,-2.558 0,-0.034 0,-0.034"
         style=""
         id="path3090" />
      <path
         d="m -10.036434,1093.5824 c 0,-0.7731 0.2728591,-1.4552 0.8185785,-2.0464 0.568456,-0.5685 1.2619734,-0.8527 2.0805541,-0.8527 l 8.8679357,0 0,2.3875 -8.8679357,0 c -0.1591708,0 -0.2842313,0.057 -0.3751819,0.1705 -0.090956,0.091 -0.1364321,0.2047 -0.1364297,0.3411 l 0,0.8527 c -2.4e-6,0.1592 0.045474,0.2842 0.1364297,0.3752 0.1364272,0.091 0.2614877,0.1364 0.3751819,0.1364 l 6.82148898,0 c 0.79582987,0 1.47797812,0.2842 2.04644672,0.8527 0.2728475,0.2956 0.477492,0.6139 0.613934,0.955 0.1591555,0.3183 0.2387395,0.6822 0.2387521,1.0914 l 0,0.8527 c -1.26e-5,0.7959 -0.2842411,1.478 -0.8526861,2.0465 -0.5684686,0.5684 -1.25061685,0.8527 -2.04644672,0.8527 l -8.86793568,0 0,-2.3876 8.86793568,0 c 0.1591582,0 0.28421871,-0.045 0.3751819,-0.1364 0.090943,-0.1364 0.13641954,-0.2615 0.13642978,-0.3752 l 0,-0.8527 c -1.024e-5,-0.091 -0.0454868,-0.2046 -0.13642978,-0.341 -0.11370147,-0.1137 -0.23876197,-0.1706 -0.3751819,-0.1706 l -6.82148898,0 c -0.8185807,0 -1.5007289,-0.2842 -2.0464467,-0.8527 -0.5684577,-0.5457 -0.8526859,-1.2278 -0.8526859,-2.0464 l 0,-0.8527"
         style=""
         id="path3092" />
    </g>
    <g
       style="font-size:34.10744476px;font-style:normal;font-variant:normal;font-weight:normal;font-stretch:normal;line-height:125%;letter-spacing:0px;word-spacing:0px;fill:#000000;fill-opacity:1;stroke:none;font-family:ISL_Jupiter;-inkscape-font-specification:ISL_Jupiter"
       id="text3016-7">
      <path
         d="m 13.432652,1091.288 c 0,-0.9095 0.329705,-1.694 0.989116,-2.3534 0.591195,-0.5912 1.364296,-0.9095 2.319307,-0.955 l 9.413654,0 c 0.909519,0.023 1.68262,0.341 2.319307,0.955 0.659395,0.7049 0.989099,1.4893 0.989116,2.3534 l 0,1.8759 c -1.7e-5,0.6139 -0.284245,1.1142 -0.852687,1.5007 -0.432042,0.2956 -0.841331,0.4548 -1.227868,0.4775 0.454752,0.068 0.864041,0.2274 1.227868,0.4775 0.568442,0.3866 0.85267,0.8868 0.852687,1.5008 l 0,1.8759 c -1.7e-5,0.9095 -0.329721,1.694 -0.989116,2.3534 -0.682164,0.6367 -1.455265,0.955 -2.319307,0.955 l -9.413654,0 c -0.909535,0 -1.682636,-0.3183 -2.319307,-0.955 -0.659411,-0.6367 -0.989116,-1.4212 -0.989116,-2.3534 l 0,-1.8759 c 0,-0.6367 0.284229,-1.137 0.852687,-1.5008 0.363811,-0.2501 0.7731,-0.4093 1.227868,-0.4775 -0.386553,-0.023 -0.795842,-0.1819 -1.227868,-0.4775 -0.568458,-0.3638 -0.852687,-0.864 -0.852687,-1.5007 l 0,-1.8759 m 12.68797,-0.9209 -9.379547,0 c -0.272863,0 -0.488877,0.091 -0.648042,0.2728 -0.181909,0.1592 -0.272862,0.3752 -0.272859,0.6481 l 0,0.9209 0,0.8186 c -3e-6,0.2501 0.09095,0.4661 0.272859,0.648 0.181904,0.1819 0.397917,0.2729 0.648042,0.2729 l 9.379547,0 c 0.22737,0 0.454753,-0.091 0.682149,-0.2729 0.181893,-0.1819 0.272846,-0.3979 0.272859,-0.648 l 0,-0.8186 0,-0.9209 c -1.3e-5,-0.2501 -0.09097,-0.4661 -0.272859,-0.6481 -0.18192,-0.1819 -0.397933,-0.2728 -0.648042,-0.2728 l -0.03411,0 m -10.300448,8.6292 c -3e-6,0.2728 0.09095,0.4888 0.272859,0.648 0.159165,0.1819 0.375179,0.2729 0.648042,0.2729 l 9.379547,0 0.03411,0 c 0.250109,0 0.466122,-0.091 0.648042,-0.2729 0.181893,-0.1819 0.272846,-0.3979 0.272859,-0.648 l 0,-0.8868 0,-0.8527 c -1.3e-5,-0.2501 -0.09097,-0.4661 -0.272859,-0.6481 -0.227396,-0.1819 -0.454779,-0.2728 -0.682149,-0.2728 l -9.379547,0 c -0.250125,0 -0.466138,0.091 -0.648042,0.2728 -0.181909,0.182 -0.272862,0.398 -0.272859,0.6481 l 0,0.8527 0,0.8868"
         style=""
         id="path3085" />
      <path
         d="m 31.152535,1094.2894 c 0,-0.7731 0.27286,-1.4552 0.818579,-2.0464 0.568456,-0.5685 1.261973,-0.8527 2.080554,-0.8527 l 8.867936,0 0,2.3875 -8.867936,0 c -0.159171,0 -0.284231,0.057 -0.375182,0.1706 -0.09095,0.091 -0.136432,0.2046 -0.136429,0.341 l 0,0.8527 c -3e-6,0.1592 0.04547,0.2843 0.136429,0.3752 0.136427,0.091 0.261488,0.1364 0.375182,0.1364 l 6.821489,0 c 0.79583,0 1.477978,0.2843 2.046447,0.8527 0.272847,0.2956 0.477492,0.614 0.613934,0.955 0.159155,0.3184 0.238739,0.6822 0.238752,1.0915 l 0,0.8527 c -1.3e-5,0.7958 -0.284241,1.4779 -0.852686,2.0464 -0.568469,0.5685 -1.250617,0.8527 -2.046447,0.8527 l -8.867935,0 0,-2.3875 8.867935,0 c 0.159158,0 0.284219,-0.046 0.375182,-0.1365 0.09094,-0.1364 0.13642,-0.2615 0.13643,-0.3751 l 0,-0.8527 c -10e-6,-0.091 -0.04549,-0.2047 -0.13643,-0.3411 -0.113701,-0.1137 -0.238762,-0.1705 -0.375182,-0.1705 l -6.821489,0 c -0.818581,0 -1.500729,-0.2843 -2.046446,-0.8527 -0.568458,-0.5457 -0.852687,-1.2279 -0.852687,-2.0465 l 0,-0.8527"
         style=""
         id="path3087" />
    </g>
    <g
       style="font-size:34.10744476px;font-style:normal;font-variant:normal;font-weight:normal;font-stretch:normal;line-height:125%;letter-spacing:0px;word-spacing:0px;fill:#000000;fill-opacity:1;stroke:none;font-family:ISL_Jupiter;-inkscape-font-specification:ISL_Jupiter"
       id="text3016-2">
      <path
         d="m -21.140729,1112.1979 0,14.3252 -2.387522,0 0,-11.9376 -0.443396,0 -5.184332,4.2634 -1.534835,-1.8418 5.866481,-4.8092 3.683604,0"
         style=""
         id="path3078" />
      <path
         d="m -0.69225086,1113.0506 c 0.56844166,0.614 0.85267009,1.2961 0.85268612,2.0465 l 0,8.5268 c -1.603e-5,0.7959 -0.28424446,1.478 -0.85268612,2.0465 -0.56847204,0.5684 -1.25062024,0.8527 -2.04644664,0.8527 l -10.2322335,0 c -0.818581,0 -1.500729,-0.2843 -2.046447,-0.8527 -0.568457,-0.5457 -0.852686,-1.2279 -0.852686,-2.0465 l 0,-8.5268 c 0,-0.7959 0.284229,-1.478 0.852686,-2.0465 0.545718,-0.5684 1.227866,-0.8526 2.046447,-0.8527 l 10.2322335,0 c 0.7958264,1e-4 1.4779746,0.2843 2.04644664,0.8527 m -1.53483504,3.9565 -10.5733081,7.1285 10.0616965,0 c 0.1591547,0 0.2728461,-0.046 0.3410744,-0.1365 0.1136779,-0.1137 0.1705236,-0.2387 0.1705372,-0.3752 l 0,-6.6168 m -11.2554571,4.7409 10.5733082,-7.1625 -10.0616962,0 c -0.159171,0 -0.284231,0.057 -0.375182,0.1705 -0.09095,0.068 -0.136432,0.1819 -0.13643,0.3411 l 0,6.6509"
         style=""
         id="path3080" />
      <path
         d="m 1.8498192,1118.5078 c 0,-0.7731 0.2728593,-1.4552 0.8185787,-2.0464 0.568456,-0.5685 1.2619733,-0.8527 2.0805541,-0.8527 l 8.867936,0 0,2.3875 -8.867936,0 c -0.1591708,0 -0.2842313,0.057 -0.3751819,0.1705 -0.090956,0.091 -0.1364322,0.2047 -0.1364298,0.3411 l 0,0.8527 c -2.4e-6,0.1592 0.045474,0.2842 0.1364298,0.3752 0.1364271,0.091 0.2614876,0.1364 0.3751819,0.1364 l 6.821489,0 c 0.79583,0 1.477978,0.2843 2.046447,0.8527 0.272847,0.2956 0.477492,0.6139 0.613934,0.955 0.159155,0.3184 0.238739,0.6822 0.238752,1.0915 l 0,0.8526 c -1.3e-5,0.7959 -0.284241,1.478 -0.852686,2.0465 -0.568469,0.5684 -1.250617,0.8527 -2.046447,0.8527 l -8.8679357,0 0,-2.3875 8.8679357,0 c 0.159158,0 0.284219,-0.046 0.375182,-0.1365 0.09094,-0.1364 0.136419,-0.2615 0.13643,-0.3752 l 0,-0.8526 c -1.1e-5,-0.091 -0.04549,-0.2047 -0.13643,-0.3411 -0.113702,-0.1137 -0.238762,-0.1706 -0.375182,-0.1706 l -6.821489,0 c -0.8185808,0 -1.500729,-0.2842 -2.0464467,-0.8526 -0.5684577,-0.5458 -0.8526861,-1.2279 -0.8526861,-2.0465 l 0,-0.8527"
         style=""
         id="path3082" />
    </g>
  </g>
</svg>
