<?xml version="1.0" encoding="UTF-8" standalone="no"?>
<!-- Created with Inkscape (http://www.inkscape.org/) -->

<svg
   xmlns:dc="http://purl.org/dc/elements/1.1/"
   xmlns:cc="http://creativecommons.org/ns#"
   xmlns:rdf="http://www.w3.org/1999/02/22-rdf-syntax-ns#"
   xmlns:svg="http://www.w3.org/2000/svg"
   xmlns="http://www.w3.org/2000/svg"
   xmlns:xlink="http://www.w3.org/1999/xlink"
   xmlns:sodipodi="http://sodipodi.sourceforge.net/DTD/sodipodi-0.dtd"
   xmlns:inkscape="http://www.inkscape.org/namespaces/inkscape"
   width="64"
   height="64"
   id="svg2"
   version="1.1"
   inkscape:version="0.48.3.1 r9886"
   sodipodi:docname="light.svg">
  <defs
     id="defs4">
    <inkscape:perspective
       sodipodi:type="inkscape:persp3d"
       inkscape:vp_x="0 : 526.18109 : 1"
       inkscape:vp_y="0 : 1000 : 0"
       inkscape:vp_z="744.09448 : 526.18109 : 1"
       inkscape:persp3d-origin="372.04724 : 350.78739 : 1"
       id="perspective2468" />
    <inkscape:perspective
       id="perspective10"
       inkscape:persp3d-origin="372.04724 : 350.78739 : 1"
       inkscape:vp_z="744.09448 : 526.18109 : 1"
       inkscape:vp_y="0 : 1000 : 0"
       inkscape:vp_x="0 : 526.18109 : 1"
       sodipodi:type="inkscape:persp3d" />
    <linearGradient
       y2="469.61218"
       x2="195.8125"
       y1="469.43201"
       x1="178.52122"
       gradientUnits="userSpaceOnUse"
       id="linearGradient3622"
       xlink:href="#linearGradient3624"
       inkscape:collect="always" />
    <linearGradient
       y2="469.46918"
       x2="195.29178"
       y1="469.64233"
       x1="178.20621"
       gradientUnits="userSpaceOnUse"
       id="linearGradient3602"
       xlink:href="#linearGradient3604"
       inkscape:collect="always" />
    <linearGradient
       y2="469.61218"
       x2="195.8125"
       y1="469.36932"
       x1="184.05486"
       gradientUnits="userSpaceOnUse"
       id="linearGradient3588"
       xlink:href="#linearGradient3563"
       inkscape:collect="always" />
    <inkscape:perspective
       sodipodi:type="inkscape:persp3d"
       inkscape:vp_x="0 : 526.18109 : 1"
       inkscape:vp_y="0 : 1000 : 0"
       inkscape:vp_z="744.09448 : 526.18109 : 1"
       inkscape:persp3d-origin="372.04724 : 350.78739 : 1"
       id="perspective2468-2" />
    <inkscape:perspective
       id="perspective10-8"
       inkscape:persp3d-origin="372.04724 : 350.78739 : 1"
       inkscape:vp_z="744.09448 : 526.18109 : 1"
       inkscape:vp_y="0 : 1000 : 0"
       inkscape:vp_x="0 : 526.18109 : 1"
       sodipodi:type="inkscape:persp3d" />
    <linearGradient
       inkscape:collect="always"
       id="linearGradient3563">
      <stop
         style="stop-color:#888a85;stop-opacity:1"
         offset="0"
         id="stop3565" />
      <stop
         style="stop-color:#d3d7cf;stop-opacity:1"
         offset="1"
         id="stop3567" />
    </linearGradient>
    <linearGradient
       id="linearGradient3604"
       inkscape:collect="always">
      <stop
         id="stop3606"
         offset="0"
         style="stop-color:#888a85;stop-opacity:1" />
      <stop
         id="stop3608"
         offset="1"
         style="stop-color:#eeeeec;stop-opacity:1" />
    </linearGradient>
    <linearGradient
       id="linearGradient3624"
       inkscape:collect="always">
      <stop
         id="stop3626"
         offset="0"
         style="stop-color:#eeeeec;stop-opacity:1" />
      <stop
         id="stop3628"
         offset="1"
         style="stop-color:#888a85;stop-opacity:1" />
    </linearGradient>
    <linearGradient
       id="linearGradient3851"
       inkscape:collect="always">
      <stop
         id="stop3853"
         offset="0"
         style="stop-color:#eeeeec;stop-opacity:1" />
      <stop
         id="stop3855"
         offset="1"
         style="stop-color:#888a85;stop-opacity:1" />
    </linearGradient>
    <linearGradient
       id="linearGradient3886"
       inkscape:collect="always">
      <stop
         id="stop3888"
         offset="0"
         style="stop-color:#eeeeec;stop-opacity:1" />
      <stop
         id="stop3890"
         offset="1"
         style="stop-color:#888a85;stop-opacity:1" />
    </linearGradient>
    <radialGradient
       inkscape:collect="always"
       xlink:href="#linearGradient3851"
       id="radialGradient3732"
       gradientUnits="userSpaceOnUse"
       gradientTransform="matrix(1.2053767,0,0,0.7166113,-284.84765,614.02511)"
       cx="182.8755"
       cy="455.88815"
       fx="182.8755"
       fy="455.88815"
       r="8.7778254" />
    <radialGradient
       inkscape:collect="always"
       xlink:href="#linearGradient3886"
       id="radialGradient3735"
       gradientUnits="userSpaceOnUse"
       gradientTransform="matrix(1,0,0,0.7022489,-307.30127,559.99884)"
       cx="231.77881"
       cy="533.42224"
       fx="231.77881"
       fy="533.42224"
       r="10.812" />
    <radialGradient
       inkscape:collect="always"
       xlink:href="#linearGradient3886"
       id="radialGradient3738"
       gradientUnits="userSpaceOnUse"
       gradientTransform="matrix(0.8149971,-0.1545004,0.2144079,1.1310119,-387.3152,362.51606)"
       cx="234.62225"
       cy="532.39911"
       fx="234.62225"
       fy="532.39911"
       r="10.812" />
  </defs>
  <sodipodi:namedview
     id="base"
     pagecolor="#ffffff"
     bordercolor="#666666"
     borderopacity="1.0"
     inkscape:pageopacity="0.0"
     inkscape:pageshadow="2"
     inkscape:zoom="5.6568543"
     inkscape:cx="32.737869"
     inkscape:cy="12.722446"
     inkscape:document-units="px"
     inkscape:current-layer="layer1"
     showgrid="true"
     inkscape:showpageshadow="false"
     inkscape:snap-global="true"
     inkscape:window-width="1280"
     inkscape:window-height="953"
     inkscape:window-x="0"
     inkscape:window-y="0"
     inkscape:window-maximized="1"
     inkscape:object-paths="false"
     inkscape:snap-nodes="true"
     inkscape:object-nodes="false"
     inkscape:snap-bbox="false">
    <inkscape:grid
       type="axonomgrid"
       id="grid4136"
       units="mm"
       empspacing="5"
       visible="true"
       enabled="true"
       snapvisiblegridlinesonly="true" />
  </sodipodi:namedview>
  <metadata
     id="metadata7">
    <rdf:RDF>
      <cc:Work
         rdf:about="">
        <dc:format>image/svg+xml</dc:format>
        <dc:type
           rdf:resource="http://purl.org/dc/dcmitype/StillImage" />
      </cc:Work>
    </rdf:RDF>
  </metadata>
  <g
     inkscape:label="Capa 1"
     inkscape:groupmode="layer"
     id="layer1"
     transform="translate(0,-988.36218)">
    <path
       style="fill:none;stroke:#000000;stroke-width:1.50000000000000000;stroke-miterlimit:4;stroke-dasharray:none;stroke-linejoin:round"
       d="m 27.610471,1011.6076 -0.5625,0.3437 c -1.809541,0.1158 -3.2242,0.8797 -3.25,1.8125 -2.4e-4,0.01 0,0.022 0,0.031 l 0,0.031 -2.3125,1.3438 0,10.625 2.5625,1.4687 c 0.76401,0.8682 1.621766,1.3888 2.28125,1.3125 l 7.40625,4.3125 6.15625,-3.5625 0,-10.625 -2.46875,-1.4062 c 0,-0.01 2.41e-4,-0.022 0,-0.031 -0.02525,-0.9127 -1.371937,-1.6404 -3.125,-1.7812 l -3.125,-1.8125 c -0.110306,-0.8482 -1.338387,-1.5586 -2.96875,-1.7188 l -0.59375,-0.3437 z"
       id="path3032-2"
       inkscape:connector-curvature="0" />
    <path
       style="fill:#f5f5f5;stroke:none"
       d="m 33.754533,1022.2441 6.137187,-3.5433 -12.274375,-7.0867 -6.137188,3.5434 z"
       id="path3032"
       inkscape:connector-curvature="0" />
    <path
       style="fill:#b9b9b9;fill-opacity:1;fill-rule:nonzero;stroke:none"
       d="m 27.512187,1011.9222 c -2.030394,0 -3.678754,0.8278 -3.706743,1.8398 -2.4e-4,0.01 0,0.018 0,0.027 l 0,1.7473 0,0.027 c 0.02799,1.0121 1.676349,1.8398 3.706743,1.8398 2.030397,0 3.678754,-0.8277 3.706742,-1.8398 2.41e-4,-0.01 0,-0.018 0,-0.027 l 0,-1.7473 c 0,-0.01 2.41e-4,-0.018 0,-0.027 -0.02799,-1.012 -1.676345,-1.8398 -3.706742,-1.8398 z"
       id="path3844-3-4"
       inkscape:connector-curvature="0"
       sodipodi:nodetypes="scsccscsscs" />
    <path
       style="fill:#d7d7d7;stroke:none"
       d="m 33.754533,1022.2441 -12.274376,-7.0866 0,10.6299 12.274376,7.0866 z"
       id="path3002"
       inkscape:connector-curvature="0"
       sodipodi:nodetypes="ccccc" />
    <path
       style="fill:#d7d7d7;fill-opacity:1;fill-rule:nonzero;stroke:none"
       d="m 30.979064,1013.8035 c 0,0.9579 -1.553065,1.7345 -3.468865,1.7345 -1.915798,0 -3.468862,-0.7766 -3.468862,-1.7345 0,-0.9578 1.553064,-1.7344 3.468862,-1.7344 1.9158,0 3.468865,0.7766 3.468865,1.7344 z"
       id="path3844-3-3-0-1"
       inkscape:connector-curvature="0" />
    <path
       style="fill:#b9b9b9;fill-opacity:1;fill-rule:nonzero;stroke:none"
       d="m 33.731253,1015.4297 c -2.030394,0 -3.678754,0.8278 -3.706743,1.8398 -2.4e-4,0.01 0,0.018 0,0.027 l 0,1.7473 0,0.027 c 0.02799,1.0121 1.676349,1.8398 3.706743,1.8398 2.030397,0 3.678754,-0.8277 3.706742,-1.8398 2.41e-4,-0.01 0,-0.018 0,-0.027 l 0,-1.7473 c 0,-0.01 2.41e-4,-0.018 0,-0.027 -0.02799,-1.012 -1.676345,-1.8398 -3.706742,-1.8398 z"
       id="path3844-3"
       inkscape:connector-curvature="0"
       sodipodi:nodetypes="scsccscsscs" />
    <path
       style="fill:#d7d7d7;fill-opacity:1;fill-rule:nonzero;stroke:none"
       d="m 37.19813,1017.311 c 0,0.9579 -1.553065,1.7345 -3.468865,1.7345 -1.915798,0 -3.468862,-0.7766 -3.468862,-1.7345 0,-0.9578 1.553064,-1.7344 3.468862,-1.7344 1.9158,0 3.468865,0.7766 3.468865,1.7344 z"
       id="path3844-3-3-0"
       inkscape:connector-curvature="0" />
    <path
       style="fill:#b9b9b9;stroke:none"
       d="m 33.754533,1022.2441 6.137187,-3.5433 0,10.6299 -6.137187,3.5433 z"
       id="path3034"
       inkscape:connector-curvature="0" />
    <path
       style="fill:#ffc832;fill-opacity:1;fill-rule:nonzero;stroke:none"
       d="m 23.260132,1026.1657 c 1.015197,1.7583 2.556273,2.772 3.446685,2.2902 0.0088,0 0.01559,-0.01 0.02338,-0.013 l 3.245257,-1.8736 0.02338,-0.014 c 0.86251,-0.5303 0.755139,-2.3717 -0.260058,-4.1301 -1.015198,-1.7584 -2.556186,-2.772 -3.446684,-2.2902 -0.0088,0 -0.01559,0.01 -0.02338,0.014 l -3.245257,1.8736 c -0.0087,0 -0.01571,0.01 -0.02338,0.013 -0.862422,0.5303 -0.755141,2.3717 0.260058,4.1301 z"
       id="path3844-3-4-9"
       inkscape:connector-curvature="0"
       sodipodi:nodetypes="scsccscsscs" />
    <path
       style="fill:#ffe682;fill-opacity:1;fill-rule:nonzero;stroke:none"
       d="m 23.155947,1022.2226 c 0.829566,-0.4789 2.278654,0.4778 3.236554,2.1369 0.957899,1.6591 1.061875,3.3924 0.232309,3.8714 -0.829479,0.4789 -2.278566,-0.4778 -3.236465,-2.137 -0.9579,-1.6591 -1.061877,-3.3924 -0.232398,-3.8713 z"
       id="path3844-3-3-0-1-9"
       inkscape:connector-curvature="0"
       sodipodi:nodetypes="sssss" />
  </g>
</svg>
