<?xml version="1.0" encoding="UTF-8" standalone="no"?>
<!-- Created with Inkscape (http://www.inkscape.org/) -->

<svg
   xmlns:dc="http://purl.org/dc/elements/1.1/"
   xmlns:cc="http://creativecommons.org/ns#"
   xmlns:rdf="http://www.w3.org/1999/02/22-rdf-syntax-ns#"
   xmlns:svg="http://www.w3.org/2000/svg"
   xmlns="http://www.w3.org/2000/svg"
   xmlns:xlink="http://www.w3.org/1999/xlink"
   xmlns:sodipodi="http://sodipodi.sourceforge.net/DTD/sodipodi-0.dtd"
   xmlns:inkscape="http://www.inkscape.org/namespaces/inkscape"
   width="64"
   height="64"
   id="svg2"
   version="1.1"
   inkscape:version="0.48.3.1 r9886"
   sodipodi:docname="stop.svg">
  <defs
     id="defs4">
    <linearGradient
       inkscape:collect="always"
       id="linearGradient3970">
      <stop
         style="stop-color:#f5f5f5;stop-opacity:1;"
         offset="0"
         id="stop3972" />
      <stop
         style="stop-color:#d7d7d7;stop-opacity:1"
         offset="1"
         id="stop3974" />
    </linearGradient>
    <inkscape:perspective
       sodipodi:type="inkscape:persp3d"
       inkscape:vp_x="0 : 526.18109 : 1"
       inkscape:vp_y="0 : 1000 : 0"
       inkscape:vp_z="744.09448 : 526.18109 : 1"
       inkscape:persp3d-origin="372.04724 : 350.78739 : 1"
       id="perspective2468" />
    <inkscape:perspective
       id="perspective10"
       inkscape:persp3d-origin="372.04724 : 350.78739 : 1"
       inkscape:vp_z="744.09448 : 526.18109 : 1"
       inkscape:vp_y="0 : 1000 : 0"
       inkscape:vp_x="0 : 526.18109 : 1"
       sodipodi:type="inkscape:persp3d" />
    <linearGradient
       y2="469.61218"
       x2="195.8125"
       y1="469.43201"
       x1="178.52122"
       gradientUnits="userSpaceOnUse"
       id="linearGradient3622"
       xlink:href="#linearGradient3624"
       inkscape:collect="always" />
    <linearGradient
       y2="469.46918"
       x2="195.29178"
       y1="469.64233"
       x1="178.20621"
       gradientUnits="userSpaceOnUse"
       id="linearGradient3602"
       xlink:href="#linearGradient3604"
       inkscape:collect="always" />
    <linearGradient
       y2="469.61218"
       x2="195.8125"
       y1="469.36932"
       x1="184.05486"
       gradientUnits="userSpaceOnUse"
       id="linearGradient3588"
       xlink:href="#linearGradient3563"
       inkscape:collect="always" />
    <inkscape:perspective
       sodipodi:type="inkscape:persp3d"
       inkscape:vp_x="0 : 526.18109 : 1"
       inkscape:vp_y="0 : 1000 : 0"
       inkscape:vp_z="744.09448 : 526.18109 : 1"
       inkscape:persp3d-origin="372.04724 : 350.78739 : 1"
       id="perspective2468-2" />
    <inkscape:perspective
       id="perspective10-8"
       inkscape:persp3d-origin="372.04724 : 350.78739 : 1"
       inkscape:vp_z="744.09448 : 526.18109 : 1"
       inkscape:vp_y="0 : 1000 : 0"
       inkscape:vp_x="0 : 526.18109 : 1"
       sodipodi:type="inkscape:persp3d" />
    <linearGradient
       inkscape:collect="always"
       id="linearGradient3563">
      <stop
         style="stop-color:#888a85;stop-opacity:1"
         offset="0"
         id="stop3565" />
      <stop
         style="stop-color:#d3d7cf;stop-opacity:1"
         offset="1"
         id="stop3567" />
    </linearGradient>
    <linearGradient
       id="linearGradient3604"
       inkscape:collect="always">
      <stop
         id="stop3606"
         offset="0"
         style="stop-color:#888a85;stop-opacity:1" />
      <stop
         id="stop3608"
         offset="1"
         style="stop-color:#eeeeec;stop-opacity:1" />
    </linearGradient>
    <linearGradient
       id="linearGradient3624"
       inkscape:collect="always">
      <stop
         id="stop3626"
         offset="0"
         style="stop-color:#eeeeec;stop-opacity:1" />
      <stop
         id="stop3628"
         offset="1"
         style="stop-color:#888a85;stop-opacity:1" />
    </linearGradient>
    <linearGradient
       id="linearGradient3851"
       inkscape:collect="always">
      <stop
         id="stop3853"
         offset="0"
         style="stop-color:#eeeeec;stop-opacity:1" />
      <stop
         id="stop3855"
         offset="1"
         style="stop-color:#888a85;stop-opacity:1" />
    </linearGradient>
    <linearGradient
       id="linearGradient3886"
       inkscape:collect="always">
      <stop
         id="stop3888"
         offset="0"
         style="stop-color:#eeeeec;stop-opacity:1" />
      <stop
         id="stop3890"
         offset="1"
         style="stop-color:#888a85;stop-opacity:1" />
    </linearGradient>
    <radialGradient
       inkscape:collect="always"
       xlink:href="#linearGradient3851"
       id="radialGradient3732"
       gradientUnits="userSpaceOnUse"
       gradientTransform="matrix(1.2053767,0,0,0.7166113,-284.84765,614.02511)"
       cx="182.8755"
       cy="455.88815"
       fx="182.8755"
       fy="455.88815"
       r="8.7778254" />
    <radialGradient
       inkscape:collect="always"
       xlink:href="#linearGradient3886"
       id="radialGradient3735"
       gradientUnits="userSpaceOnUse"
       gradientTransform="matrix(1,0,0,0.7022489,-307.30127,559.99884)"
       cx="231.77881"
       cy="533.42224"
       fx="231.77881"
       fy="533.42224"
       r="10.812" />
    <radialGradient
       inkscape:collect="always"
       xlink:href="#linearGradient3886"
       id="radialGradient3738"
       gradientUnits="userSpaceOnUse"
       gradientTransform="matrix(0.8149971,-0.1545004,0.2144079,1.1310119,-387.3152,362.51606)"
       cx="234.62225"
       cy="532.39911"
       fx="234.62225"
       fy="532.39911"
       r="10.812" />
    <radialGradient
       inkscape:collect="always"
       xlink:href="#linearGradient3970"
       id="radialGradient3976"
       cx="33.479401"
       cy="34.032036"
       fx="33.479401"
       fy="34.032036"
       r="17.625"
       gradientUnits="userSpaceOnUse"
       gradientTransform="matrix(1.2871795,0.00880415,-0.00925912,1.3550397,-9.27889,-12.28452)" />
  </defs>
  <sodipodi:namedview
     id="base"
     pagecolor="#ffffff"
     bordercolor="#666666"
     borderopacity="1.0"
     inkscape:pageopacity="0.0"
     inkscape:pageshadow="2"
     inkscape:zoom="5.6568544"
     inkscape:cx="44.355907"
     inkscape:cy="52.40296"
     inkscape:document-units="px"
     inkscape:current-layer="layer1"
     showgrid="true"
     inkscape:showpageshadow="false"
     inkscape:snap-global="false"
     inkscape:window-width="1280"
     inkscape:window-height="953"
     inkscape:window-x="1280"
     inkscape:window-y="0"
     inkscape:window-maximized="1"
     inkscape:object-paths="false"
     inkscape:snap-nodes="true"
     inkscape:object-nodes="false"
     inkscape:snap-bbox="false" />
  <metadata
     id="metadata7">
    <rdf:RDF>
      <cc:Work
         rdf:about="">
        <dc:format>image/svg+xml</dc:format>
        <dc:type
           rdf:resource="http://purl.org/dc/dcmitype/StillImage" />
      </cc:Work>
    </rdf:RDF>
  </metadata>
  <g
     inkscape:label="Capa 1"
     inkscape:groupmode="layer"
     id="layer1"
     transform="translate(0,-988.36218)">
    <path
       sodipodi:type="star"
       style="fill:none;stroke:#000000;stroke-width:2.34574246;stroke-miterlimit:4;stroke-dasharray:none"
       id="path3018-09"
       sodipodi:sides="8"
       sodipodi:cx="-8.125"
       sodipodi:cy="31.000002"
       sodipodi:r1="26.606213"
       sodipodi:r2="24.580936"
       sodipodi:arg1="1.1702228"
       sodipodi:arg2="1.5629219"
       inkscape:flatsided="true"
       inkscape:rounded="0"
       inkscape:randomized="0"
       d="M 2.2500003,55.5 -18.112882,55.66035 -32.624998,41.375002 -32.785348,21.01212 -18.5,6.5000036 1.8628819,6.3396539 16.374998,20.625002 l 0.16035,20.362882 z"
       transform="matrix(0.852586,0.00620063,-0.00620063,0.852586,39.119481,993.98239)" />
    <path
       sodipodi:type="star"
       style="fill:#f5f5f5;fill-opacity:1;stroke:none"
       id="path3018"
       sodipodi:sides="8"
       sodipodi:cx="-8.125"
       sodipodi:cy="31.000002"
       sodipodi:r1="26.606213"
       sodipodi:r2="24.580936"
       sodipodi:arg1="1.1702228"
       sodipodi:arg2="1.5629219"
       inkscape:flatsided="true"
       inkscape:rounded="0"
       inkscape:randomized="0"
       d="M 2.2500003,55.5 -18.112882,55.66035 -32.624998,41.375002 -32.785348,21.01212 -18.5,6.5000036 1.8628819,6.3396539 16.374998,20.625002 l 0.16035,20.362882 z"
       transform="matrix(0.852586,0.00620063,-0.00620063,0.852586,39.119481,993.98239)" />
    <path
       sodipodi:type="star"
       style="fill:#e55151;fill-opacity:1;stroke:none"
       id="path3018-0"
       sodipodi:sides="8"
       sodipodi:cx="-8.125"
       sodipodi:cy="31.000002"
       sodipodi:r1="26.606213"
       sodipodi:r2="24.580936"
       sodipodi:arg1="1.1702228"
       sodipodi:arg2="1.5629219"
       inkscape:flatsided="true"
       inkscape:rounded="0"
       inkscape:randomized="0"
       d="M 2.2500003,55.5 -18.112882,55.66035 -32.624998,41.375002 -32.785348,21.01212 -18.5,6.5000036 1.8628819,6.3396539 16.374998,20.625002 l 0.16035,20.362882 z"
       transform="matrix(0.80225854,0.00583461,-0.00583461,0.80225854,38.699224,995.53957)" />
    <g
       style="font-size:23.62862968px;font-style:normal;font-variant:normal;font-weight:normal;font-stretch:normal;line-height:125%;letter-spacing:0px;word-spacing:0px;fill:#f5f5f5;fill-opacity:1;stroke:none;font-family:ISL_Jupiter;-inkscape-font-specification:ISL_Jupiter"
       id="text3824">
      <path
         d="m 14.222225,1017.9994 c 0,-0.5356 0.189029,-1.0082 0.567087,-1.4177 0.39381,-0.3938 0.874258,-0.5907 1.441347,-0.5907 l 6.143443,0 0,1.654 -6.143443,0 c -0.110269,0 -0.196907,0.039 -0.259915,0.1181 -0.06301,0.063 -0.09452,0.1418 -0.09451,0.2363 l 0,0.5907 c -1e-6,0.1103 0.0315,0.1969 0.09451,0.2599 0.09451,0.063 0.181151,0.094 0.259915,0.094 l 4.725726,0 c 0.551327,0 1.023899,0.197 1.417717,0.5908 0.189021,0.2047 0.330793,0.4253 0.425316,0.6616 0.110258,0.2205 0.165391,0.4725 0.1654,0.7561 l 0,0.5907 c -9e-6,0.5513 -0.196914,1.0239 -0.590716,1.4177 -0.393818,0.3938 -0.86639,0.5907 -1.417717,0.5907 l -6.143444,0 0,-1.654 6.143444,0 c 0.11026,0 0.196898,-0.032 0.259915,-0.095 0.063,-0.094 0.09451,-0.1811 0.09451,-0.2599 l 0,-0.5907 c -7e-6,-0.063 -0.03151,-0.1418 -0.09451,-0.2363 -0.07877,-0.079 -0.165408,-0.1182 -0.259915,-0.1182 l -4.725726,0 c -0.567089,0 -1.039661,-0.1969 -1.417718,-0.5907 -0.393811,-0.378 -0.590716,-0.8506 -0.590716,-1.4177 l 0,-0.5907"
         style=""
         id="path3829" />
      <path
         d="m 22.962972,1015.991 1.181431,0 0,-2.3629 1.654005,0 0,2.3629 4.13501,0 0,1.654 -4.13501,0 0,3.8987 c -2e-6,0.1103 0.0315,0.1969 0.09451,0.2599 0.06301,0.063 0.149646,0.095 0.259915,0.095 l 3.780581,0 0,1.654 -3.780581,0 c -0.567089,0 -1.047537,-0.1969 -1.441346,-0.5907 -0.378059,-0.378 -0.567088,-0.8506 -0.567088,-1.4177 l 0,-3.8987 -1.181431,0 0,-1.654"
         style=""
         id="path3831" />
      <path
         d="m 39.855596,1021.5437 c -9e-6,0.5671 -0.196914,1.0397 -0.590716,1.4177 -0.378066,0.3938 -0.850638,0.5907 -1.417718,0.5907 l -4.725726,0 c -0.551336,0 -1.023908,-0.1969 -1.417717,-0.5907 -0.393811,-0.378 -0.590716,-0.8506 -0.590716,-1.4177 l 0,-3.5443 c 0,-0.5513 0.196905,-1.0239 0.590716,-1.4177 0.393809,-0.3938 0.866381,-0.5907 1.417717,-0.5907 l 4.725726,0 c 0.56708,0 1.039652,0.1969 1.417718,0.5907 0.393802,0.3938 0.590707,0.8664 0.590716,1.4177 l 0,3.5443 m -6.970446,-3.7806 c -0.07876,0.079 -0.118145,0.1575 -0.118143,0.2363 l 0,3.5443 c -2e-6,0.079 0.0315,0.1654 0.09451,0.2599 0.06301,0.063 0.149646,0.095 0.259915,0.095 l 4.725726,0 c 0.11026,0 0.196899,-0.032 0.259915,-0.095 0.063,-0.063 0.09451,-0.1496 0.09452,-0.2599 l 0,-3.5443 c -7e-6,-0.095 -0.03151,-0.1733 -0.09452,-0.2363 -0.06302,-0.079 -0.149655,-0.1181 -0.259915,-0.1181 l -4.725726,0 c -0.126021,0 -0.204783,0.039 -0.236286,0.1181"
         style=""
         id="path3833" />
      <path
         d="m 49.777774,1021.5437 c -9e-6,0.5513 -0.196914,1.0239 -0.590716,1.4177 -0.393818,0.3938 -0.86639,0.5907 -1.417717,0.5907 l -5.080156,0 0,3.5443 -1.654004,0 0,-11.1054 6.73416,0 c 0.551327,0 1.023899,0.1969 1.417717,0.5907 0.189021,0.2048 0.330793,0.4253 0.425316,0.6616 0.110258,0.2205 0.165391,0.4726 0.1654,0.7561 l 0,3.5443 m -1.748519,-3.7806 c -0.06302,-0.079 -0.149654,-0.1181 -0.259914,-0.1181 l -5.080156,0 0,4.2531 5.080156,0 c 0.11026,0 0.196898,-0.032 0.259914,-0.095 0.063,-0.094 0.09451,-0.1811 0.09452,-0.2599 l 0,-3.5443 c -7e-6,-0.063 -0.0079,-0.1103 -0.02363,-0.1418 -0.01576,-0.032 -0.03939,-0.063 -0.07089,-0.095"
         style=""
         id="path3835" />
    </g>
  </g>
</svg>
